<svg width="260" height="260" viewBox="0 0 260 260" fill="none" xmlns="http://www.w3.org/2000/svg">
<path d="M0 0H260V260H0V0Z" fill="white"/>
<path d="M0 0H260V50.7812H0V0Z" fill="#FF0000"/>
<rect x="18.2812" y="78.2031" width="28.4375" height="23.3594" rx="5" fill="#808080"/>
<rect x="213.281" y="78.2031" width="28.4375" height="23.3594" rx="5" fill="#808080"/>
<rect x="164.531" y="78.2031" width="28.4375" height="23.3594" rx="5" fill="#808080"/>
<rect x="115.781" y="78.2031" width="28.4375" height="23.3594" rx="5" fill="#808080"/>
<rect x="67.0312" y="78.2031" width="28.4375" height="23.3594" rx="5" fill="#808080"/>
<rect x="18.2812" y="209.219" width="28.4375" height="23.3594" rx="5" fill="#808080"/>
<rect x="115.781" y="209.219" width="28.4375" height="23.3594" rx="5" fill="#808080"/>
<rect x="67.0312" y="209.219" width="28.4375" height="23.3594" rx="5" fill="#808080"/>
<rect x="18.2812" y="165.547" width="28.4375" height="23.3594" rx="5" fill="#808080"/>
<rect x="213.281" y="165.547" width="28.4375" height="23.3594" rx="5" fill="#808080"/>
<rect x="164.531" y="165.547" width="28.4375" height="23.3594" rx="5" fill="#808080"/>
<rect x="115.781" y="165.547" width="28.4375" height="23.3594" rx="5" fill="#808080"/>
<rect x="67.0312" y="165.547" width="28.4375" height="23.3594" rx="5" fill="#808080"/>
<rect x="18.2812" y="121.875" width="28.4375" height="23.3594" rx="5" fill="#808080"/>
<rect x="213.281" y="121.875" width="28.4375" height="23.3594" rx="5" fill="#808080"/>
<rect x="164.531" y="121.875" width="28.4375" height="23.3594" rx="5" fill="#808080"/>
<rect x="115.781" y="121.875" width="28.4375" height="23.3594" rx="5" fill="#808080"/>
<rect x="67.0312" y="121.875" width="28.4375" height="23.3594" rx="5" fill="#808080"/>
</svg>
