<svg width="260" height="260" viewBox="0 0 260 260" fill="none" xmlns="http://www.w3.org/2000/svg">
<path d="M0 0H260V260H0V0Z" fill="white"/>
<path d="M0 0H260V71.0938H0V0Z" fill="#FF0000"/>
<rect x="42.6562" y="95.9766" width="28.4375" height="23.3594" rx="5" fill="#808080"/>
<rect x="188.906" y="95.9766" width="28.4375" height="23.3594" rx="5" fill="#808080"/>
<rect x="140.156" y="95.9766" width="28.4375" height="23.3594" rx="5" fill="#808080"/>
<rect x="91.4062" y="95.9766" width="28.4375" height="23.3594" rx="5" fill="#808080"/>
<rect x="42.6562" y="211.758" width="28.4375" height="23.3594" rx="5" fill="#808080"/>
<rect x="140.156" y="211.758" width="28.4375" height="23.3594" rx="5" fill="#808080"/>
<rect x="91.4062" y="211.758" width="28.4375" height="23.3594" rx="5" fill="#808080"/>
<rect x="42.6562" y="173.164" width="28.4375" height="23.3594" rx="5" fill="#808080"/>
<rect x="188.906" y="173.164" width="28.4375" height="23.3594" rx="5" fill="#808080"/>
<rect x="140.156" y="173.164" width="28.4375" height="23.3594" rx="5" fill="#808080"/>
<rect x="91.4062" y="173.164" width="28.4375" height="23.3594" rx="5" fill="#808080"/>
<rect x="42.6562" y="134.57" width="28.4375" height="23.3594" rx="5" fill="#808080"/>
<rect x="188.906" y="134.57" width="28.4375" height="23.3594" rx="5" fill="#808080"/>
<rect x="140.156" y="134.57" width="28.4375" height="23.3594" rx="5" fill="#808080"/>
<rect x="91.4062" y="134.57" width="28.4375" height="23.3594" rx="5" fill="#808080"/>
</svg>
